<?xml version="1.0" encoding="UTF-8" standalone="no" ?>
<!DOCTYPE svg PUBLIC "-//W3C//DTD SVG 1.1//EN" "http://www.w3.org/Graphics/SVG/1.1/DTD/svg11.dtd">
<svg xmlns="http://www.w3.org/2000/svg" xmlns:xlink="http://www.w3.org/1999/xlink" version="1.1" width="400" height="400" viewBox="0 0 400 400" xml:space="preserve">
<desc>Created with Fabric.js 3.6.2</desc>
<defs>
</defs>
<g transform="matrix(4.17 0 0 4.17 200 224.9)" id="Layer_15"  >
<path style="stroke: none; stroke-width: 1; stroke-dasharray: none; stroke-linecap: butt; stroke-dashoffset: 0; stroke-linejoin: miter; stroke-miterlimit: 4; fill: rgb(0,0,0); fill-rule: nonzero; opacity: 1;"  transform=" translate(-24, -29.98)" d="M 24 43 c -4.4 0 -9 -2.5 -9 -7 c 0 -3.1 4.1 -16.2 8.5 -18.9 c 0.3 -0.2 0.7 -0.2 1 0 C 28.9 19.8 33 32.9 33 36 C 33 40.5 28.4 43 24 43 z M 24 19.2 c -3.3 2.9 -7 13.9 -7 16.8 c 0 3.2 3.6 5 7 5 s 7 -1.8 7 -5 C 31 33.2 27.3 22.1 24 19.2 z" stroke-linecap="round" />
</g>
<g transform="matrix(4.17 0 0 4.17 177.54 201.84)" id="Layer_15"  >
<path style="stroke: none; stroke-width: 1; stroke-dasharray: none; stroke-linecap: butt; stroke-dashoffset: 0; stroke-linejoin: miter; stroke-miterlimit: 4; fill: rgb(0,0,0); fill-rule: nonzero; opacity: 1;"  transform=" translate(-18.61, -24.44)" d="M 16 32 c -0.1 0 -0.2 0 -0.3 -0.1 c -1.4 -0.5 -2 -1.3 -2.2 -2 c -0.7 -1.6 0 -3.4 0.4 -4.1 c 0.8 -1.5 5.3 -8 8.9 -8.9 c 0.5 -0.1 1.1 0.2 1.2 0.7 c 0.1 0.5 -0.2 1.1 -0.7 1.2 c -2.6 0.7 -6.8 6.1 -7.6 7.8 c -0.4 0.9 -0.6 1.8 -0.3 2.4 c 0.2 0.4 0.5 0.7 1 0.8 c 0.5 0.2 0.8 0.7 0.6 1.3 C 16.8 31.7 16.4 32 16 32 z" stroke-linecap="round" />
</g>
<g transform="matrix(4.17 0 0 4.17 222.67 202.39)" id="Layer_15"  >
<path style="stroke: none; stroke-width: 1; stroke-dasharray: none; stroke-linecap: butt; stroke-dashoffset: 0; stroke-linejoin: miter; stroke-miterlimit: 4; fill: rgb(0,0,0); fill-rule: nonzero; opacity: 1;"  transform=" translate(-29.44, -24.57)" d="M 32 32 c -0.4 0 -0.8 -0.3 -0.9 -0.7 c -0.2 -0.5 0.1 -1.1 0.6 -1.3 c 0.5 -0.2 0.9 -0.5 1 -0.8 c 0.2 -0.6 0.1 -1.5 -0.3 -2.4 c -0.8 -1.7 -5.1 -7.2 -7.6 -7.8 c -0.5 -0.1 -0.9 -0.7 -0.7 -1.2 c 0.1 -0.5 0.7 -0.9 1.2 -0.7 c 3.6 0.9 8.2 7.3 8.9 8.9 c 0.3 0.7 1 2.4 0.4 4.1 c -0.3 0.6 -0.9 1.5 -2.2 2 C 32.2 32 32.1 32 32 32 z" stroke-linecap="round" />
</g>
<g transform="matrix(4.17 0 0 4.17 204.17 125)" id="Layer_15"  >
<path style="stroke: none; stroke-width: 1; stroke-dasharray: none; stroke-linecap: butt; stroke-dashoffset: 0; stroke-linejoin: miter; stroke-miterlimit: 4; fill: rgb(0,0,0); fill-rule: nonzero; opacity: 1;"  transform=" translate(-25, -6)" d="M 27 7 h -4 c -0.6 0 -1 -0.4 -1 -1 s 0.4 -1 1 -1 h 4 c 0.6 0 1 0.4 1 1 S 27.6 7 27 7 z" stroke-linecap="round" />
</g>
<g transform="matrix(4.17 0 0 4.17 200 158.33)" id="Layer_15"  >
<path style="stroke: none; stroke-width: 1; stroke-dasharray: none; stroke-linecap: butt; stroke-dashoffset: 0; stroke-linejoin: miter; stroke-miterlimit: 4; fill: rgb(0,0,0); fill-rule: nonzero; opacity: 1;"  transform=" translate(-24, -14)" d="M 24 19 c -2.8 0 -5 -2.2 -5 -5 s 2.2 -5 5 -5 s 5 2.2 5 5 S 26.8 19 24 19 z M 24 11 c -1.7 0 -3 1.3 -3 3 s 1.3 3 3 3 s 3 -1.3 3 -3 S 25.7 11 24 11 z" stroke-linecap="round" />
</g>
<g transform="matrix(4.17 0 0 4.17 153.99 162.5)" id="Layer_15"  >
<path style="stroke: none; stroke-width: 1; stroke-dasharray: none; stroke-linecap: butt; stroke-dashoffset: 0; stroke-linejoin: miter; stroke-miterlimit: 4; fill: rgb(0,0,0); fill-rule: nonzero; opacity: 1;"  transform=" translate(-12.96, -15)" d="M 16 25 c -2.3 0 -3.7 -1.5 -4 -4.1 c -2.1 -0.4 -3.8 -2.2 -4 -4.3 C 6.2 15.8 5 14 5 12 c 0 -3.9 3.1 -7 7 -7 c 3.9 0 5.8 2.6 7.7 5 c 0.3 0.4 0.7 0.9 1 1.3 c 0.3 0.4 0.3 1.1 -0.1 1.4 c -0.4 0.3 -1.1 0.3 -1.4 -0.1 c -0.4 -0.5 -0.7 -0.9 -1.1 -1.4 C 16.4 9 14.9 7 12 7 c -2.8 0 -5 2.2 -5 5 c 0 1.4 0.9 2.6 2.3 2.9 c 0.5 0.1 0.8 0.5 0.8 1 c 0 0 0 0.1 0 0.2 c 0 1.6 1.3 2.9 3 2.9 c 0.6 0 1 0.4 1 1 c 0 3 1.5 3 2 3 c 0.6 0 1 0.4 1 1 S 16.6 25 16 25 z" stroke-linecap="round" />
</g>
<g transform="matrix(4.17 0 0 4.17 245.93 162.71)" id="Layer_15"  >
<path style="stroke: none; stroke-width: 1; stroke-dasharray: none; stroke-linecap: butt; stroke-dashoffset: 0; stroke-linejoin: miter; stroke-miterlimit: 4; fill: rgb(0,0,0); fill-rule: nonzero; opacity: 1;"  transform=" translate(-35.02, -15.05)" d="M 32 25 c -0.6 0 -1 -0.4 -1 -1 s 0.4 -1 1 -1 c 0.5 0 2 0 2 -3 c 0 -0.6 0.4 -1 1 -1 c 1.7 0 3 -1.3 3 -3 c 0 0 0 0 0 -0.1 c 0 -0.5 0.3 -0.9 0.8 -1 c 1.3 -0.3 2.3 -1.5 2.3 -2.9 c 0 -2.8 -2.2 -5 -5 -5 c -2.9 0 -4.4 2 -6.2 4.3 c -0.4 0.5 -0.7 0.9 -1.1 1.4 c -0.4 0.4 -1 0.5 -1.4 0.1 c -0.4 -0.3 -0.5 -1 -0.1 -1.4 c 0.4 -0.4 0.7 -0.9 1 -1.3 c 1.9 -2.5 3.9 -5 7.7 -5 c 3.9 0 7 3.1 7 7 c 0 2 -1.2 3.8 -3 4.6 c -0.3 2.2 -1.9 3.9 -4 4.3 C 35.7 23.5 34.3 25 32 25 z" stroke-linecap="round" />
</g>
</svg>