<?xml version="1.0" encoding="UTF-8" standalone="no" ?>
<!DOCTYPE svg PUBLIC "-//W3C//DTD SVG 1.1//EN" "http://www.w3.org/Graphics/SVG/1.1/DTD/svg11.dtd">
<svg xmlns="http://www.w3.org/2000/svg" xmlns:xlink="http://www.w3.org/1999/xlink" version="1.1" width="400" height="400" viewBox="0 0 400 400" xml:space="preserve">
<desc>Created with Fabric.js 3.6.2</desc>
<defs>
</defs>
<g transform="matrix(3.13 0 0 3.13 200.63 197.38)" id="Layer_1"  >
<path style="stroke: none; stroke-width: 1; stroke-dasharray: none; stroke-linecap: butt; stroke-dashoffset: 0; stroke-linejoin: miter; stroke-miterlimit: 4; fill: rgb(0,0,0); fill-rule: nonzero; opacity: 1;"  transform=" translate(-32.2, -31.16)" d="M 47.8 36.7 c -4.8 -4.7 -9.5 -9.5 -14.1 -14.1 c -0.9 -0.9 -2.3 -0.9 -3 0 c -4.7 4.7 -9.5 9.5 -14.1 14.1 c -2 2 1.1 5.1 3 3 c 4.2 -4.2 8.5 -8.5 12.6 -12.6 c 4.2 4.2 8.5 8.5 12.6 12.6 C 46.7 41.7 49.8 38.7 47.8 36.7 z" stroke-linecap="round" />
</g>
<g transform="matrix(3.13 0 0 3.13 200.31 200)" id="Layer_1"  >
<path style="stroke: none; stroke-width: 1; stroke-dasharray: none; stroke-linecap: butt; stroke-dashoffset: 0; stroke-linejoin: miter; stroke-miterlimit: 4; fill: rgb(0,0,0); fill-rule: nonzero; opacity: 1;"  transform=" translate(-32.1, -32)" d="M 32.1 6 c -14.3 0 -26 11.7 -26 26 c 0 14.3 11.7 26 26 26 s 26 -11.7 26 -26 C 58.1 17.7 46.5 6 32.1 6 z M 32.1 54 c -12.1 0 -22 -9.9 -22 -22 s 9.9 -22 22 -22 c 12.1 0 22 9.9 22 22 S 44.3 54 32.1 54 z" stroke-linecap="round" />
</g>
</svg>