<?xml version="1.0" encoding="UTF-8" standalone="no" ?>
<!DOCTYPE svg PUBLIC "-//W3C//DTD SVG 1.1//EN" "http://www.w3.org/Graphics/SVG/1.1/DTD/svg11.dtd">
<svg xmlns="http://www.w3.org/2000/svg" xmlns:xlink="http://www.w3.org/1999/xlink" version="1.1" width="400" height="400" viewBox="0 0 400 400" xml:space="preserve">
<desc>Created with Fabric.js 3.6.2</desc>
<defs>
</defs>
<g transform="matrix(0.97 0 0 0.97 200 200)"  >
<path style="stroke: none; stroke-width: 1; stroke-dasharray: none; stroke-linecap: butt; stroke-dashoffset: 0; stroke-linejoin: miter; stroke-miterlimit: 4; fill: rgb(29,29,27); fill-rule: nonzero; opacity: 1;"  transform=" translate(-133.15, -126.1)" d="M 236.23 216.74 a 9.46 9.46 0 0 0 -3.57 -2.89 a 102.55 102.55 0 0 0 -11.84 -4.57 c -3.34 -1 -6.86 -1.28 -10.2 0.56 a 7.46 7.46 0 0 1 -2.63 0.38 c -6.23 -7.93 -11.47 -8.64 -24.86 -10.11 C 177 190.06 168.5 183.29 155 185.18 c -0.67 -5.4 -1.39 -10.52 -1.9 -15.65 c -0.29 -2.9 -0.09 -5.84 -0.37 -8.73 c -0.57 -6 -1.39 -11.89 -2 -17.84 c -0.53 -5.4 -0.83 -10.82 -1.32 -16.22 c -0.15 -1.67 -0.6 -3.32 -1.08 -5.82 c 7.42 1.91 13.92 3.57 20.4 5.27 c 3.9 1 7.74 2.34 11.69 3.15 c 4.81 1 6.87 -0.9 7 -5.67 c 0.14 -5.17 0.16 -10.36 0.48 -15.52 c 0.09 -1.57 0.21 -3.13 0.37 -4.69 c 0.71 -6.79 1.65 -13.56 2.59 -20.33 c 0.51 -3.72 1 -7.44 1.5 -11.17 c 0.43 -3.41 1.1 -6.9 -0.87 -10.77 c -13.56 -0.41 -26.75 3.61 -40.59 4.4 c -0.47 -6.67 4.15 -12.22 4.55 -18.76 s 4.37 -12.77 3.07 -20.35 C 138 24 117.67 25.79 97 25.26 c -0.44 1.85 -1.12 3.3 -1 4.71 a 51.12 51.12 0 0 0 1.11 8 q 3.06 14.12 6.33 28.18 c 0.55 2.33 1.73 4.54 1.25 7.51 c -6.48 -1.75 -12.52 -3.6 -18.67 -5 A 134.58 134.58 0 0 0 70 66 c -4.69 -0.48 -6.4 1.13 -6.49 6 c -0.15 9.21 -0.06 18.43 0.09 27.64 c 0.07 4.63 0.46 9.27 0.76 13.9 c 0.24 3.65 0.86 7.29 0.78 10.93 c -0.1 4.37 1.16 6.23 5.42 5.87 c 3.62 -0.3 7.18 -1.25 10.78 -1.84 c 6.55 -1.09 13.11 -2.13 20.33 -3.29 c -2.4 23.51 -4.7 46.07 -7 68.57 c -13 -0.77 -24.07 3.05 -34 10.41 c -1.69 1.25 -3.58 2.7 -4.45 4.51 c -2 4.12 -5.31 5.72 -9.4 7 a 44.88 44.88 0 0 0 -17.25 9.83 c 2.08 0.73 3.48 1.75 4.6 1.5 a 30.26 30.26 0 0 0 8.11 -2.82 c 8.77 -4.83 18.19 -4.38 27.66 -3.89 c 7.14 0.38 14.28 0.85 21.43 1.12 c 1.32 0 2.66 -0.64 5.32 -1.34 c -2.86 -2.7 -4.69 -4.44 -6.88 -6.52 c 1.82 -0.54 3.38 -1.31 5 -1.42 c 5 -0.32 10.12 -0.28 15 1.42 c 5.36 1.89 10.67 3.92 16 5.84 c 1 0.35 2 0.47 4.38 1 c -1.59 -3.38 -2.67 -5.69 -4 -8.46 c 4.81 -2.16 9.48 -4.87 14.49 -6.46 c 0.24 -0.08 0.48 -0.17 0.73 -0.24 a 35.59 35.59 0 0 1 4.06 -1 c 6.23 -1.07 12.22 0 17 5.69 c 1.1 1.32 2.68 2.24 3.91 3.47 c 2.33 2.32 4.88 2.79 7.27 1.71 c 0.73 -2.89 1.33 -5.23 1.9 -7.5 c 8.83 -0.74 16.93 -1.06 24.24 4.6 c -3.52 1.65 -6.61 2.83 -9.41 4.5 c -2.52 1.5 -2.31 3.24 0.35 5.92 c 1.82 -0.83 3.71 -1.75 5.64 -2.55 c 6.22 -2.59 12.31 -5.24 19.44 -4.69 c 4.86 0.38 8.78 2.72 13.09 4.28 a 22.94 22.94 0 0 0 4.87 1.6 a 3.34 3.34 0 0 0 2.74 -1.49 A 3.55 3.55 0 0 0 236.23 216.74 Z M 91.37 203.69 c -3.34 0.89 -5.47 3.35 -8.17 5.05 C 77.57 212.27 71.5 215.25 64 212 c 4.75 -7.59 19.5 -13.41 30.59 -12.1 C 93.35 201.46 92.57 203.37 91.37 203.69 Z m 57.06 -8.09 c -10.94 0.11 -19.2 6.3 -27.83 11.44 a 9.44 9.44 0 0 1 -2.06 0.94 a 7.12 7.12 0 0 1 -4.33 -0.19 c -4 -1.21 -8.14 -1.89 -13 -3 c 0.48 -5.33 1 -10.48 1.4 -15.63 c 0.47 -5.4 0.8 -10.8 1.38 -16.18 c 1 -9.4 2.19 -18.78 3.22 -28.17 c 0.57 -5.18 0.91 -10.39 1.46 -15.58 c 0.22 -2.09 0.8 -4.15 1.06 -6.24 c 0.52 -4.27 -1.34 -6.33 -5.57 -5.78 c -7.29 0.93 -14.56 2 -21.87 3 l -9.19 1.3 l -0.35 0 c -0.1 -0.25 -0.19 -0.5 -0.28 -0.75 c -1.32 -3.7 -1.24 -7.64 -1.21 -11.61 c 0 -1.14 0 -2.29 0 -3.43 c 0 -0.44 0 -0.87 -0.06 -1.31 c -0.13 -3.12 -0.33 -6.24 -0.52 -9.36 c -0.13 -2.06 -0.24 -4.11 -0.3 -6.17 c -0.16 -5.43 0 -10.86 0 -16.75 c 5 -1.22 10 0.26 15 1.39 c 6 1.37 11.85 3.34 17.83 4.78 c 1.92 0.46 4.06 0.07 6.62 0.07 c 0.05 -15.39 -3.62 -29.83 -5.22 -44.55 h 46.73 c 0.12 0.15 0.58 0.49 0.53 0.73 c -0.19 1.06 -0.35 2.12 -0.49 3.19 c -0.76 5.78 -1 11.64 -3.41 17.17 c -2 4.56 -3.09 9.52 -4.54 14.32 c -0.48 1.59 -0.4 2.63 0.38 3.2 a 3.82 3.82 0 0 0 2.15 0.57 a 36.86 36.86 0 0 0 6.37 -0.42 c 7 -1 14.11 -1.92 21.13 -3.08 c 2.62 -0.44 5.15 -1.43 7.73 -2.13 s 4 0 4.49 2.25 a 9.07 9.07 0 0 1 0.14 1 a 25.91 25.91 0 0 1 0 4.66 c -1 9.21 -2.88 18.42 -2.74 27.6 a 68 68 0 0 1 -2 16.88 c -0.13 0.58 -0.27 1.16 -0.41 1.74 l -1.27 -0.15 a 30.53 30.53 0 0 1 -4.5 -0.69 c -7.21 -2 -14.34 -4.22 -21.58 -6 c -2.73 -0.69 -5.68 -0.52 -8.63 -0.76 c -2 5.69 -2.86 10.82 -1.19 16.32 c 0.87 2.87 0.65 6 0.5 9.05 c -0.24 5 0.6 10 1.09 15 c 0.69 6.92 1.52 13.83 2.2 20.75 c 0.57 5.78 1 11.57 1.51 17.35 a 15.25 15.25 0 0 1 0 1.53 c 0 0.49 0 1 0 1.65 Z m 22.64 8.08 l -15.42 -9.24 v -5.12 c 9 0.33 16 4.09 22.14 11.28 Z" stroke-linecap="round" />
</g>
</svg>