<?xml version="1.0" standalone="no"?>
<!DOCTYPE svg PUBLIC "-//W3C//DTD SVG 20010904//EN"
 "http://www.w3.org/TR/2001/REC-SVG-20010904/DTD/svg10.dtd">
<svg version="1.0" xmlns="http://www.w3.org/2000/svg"
 width="1043.000000pt" height="1280.000000pt" viewBox="0 0 1043.000000 1280.000000"
 preserveAspectRatio="xMidYMid meet">
<metadata>
Created by potrace 1.15, written by Peter Selinger 2001-2017
</metadata>
<g transform="translate(0.000000,1280.000000) scale(0.100000,-0.100000)"
fill="#000000" stroke="none">
<path d="M108 12784 c-15 -8 -33 -24 -40 -37 -8 -16 -14 -147 -19 -457 -9
-518 -14 -647 -34 -871 -18 -198 -22 -184 86 -311 102 -120 103 -123 90 -232
-6 -50 -16 -138 -21 -196 -6 -58 -15 -139 -20 -180 -12 -98 -12 -226 -1 -248
6 -9 16 -30 24 -47 31 -65 70 -130 93 -158 14 -17 37 -53 52 -81 27 -51 27
-53 26 -251 0 -110 -4 -309 -9 -441 -8 -236 -7 -243 13 -276 11 -18 37 -67 58
-108 57 -118 97 -180 216 -332 261 -336 260 -333 207 -668 -15 -96 -5 -536 16
-710 8 -69 22 -226 30 -350 8 -124 24 -322 35 -440 11 -118 29 -339 40 -490
11 -151 29 -320 40 -375 11 -55 34 -181 50 -280 37 -219 103 -521 135 -619 13
-39 30 -98 39 -132 8 -33 38 -114 67 -180 28 -65 73 -170 100 -233 72 -169
178 -315 306 -422 100 -83 272 -169 338 -169 53 0 171 -24 221 -45 20 -8 69
-18 108 -21 39 -4 77 -12 84 -17 9 -7 98 -13 222 -17 152 -4 213 -9 222 -18
10 -10 12 -53 11 -175 -3 -219 -24 -392 -57 -462 -34 -74 -83 -142 -120 -164
-41 -25 -275 -105 -351 -121 -33 -6 -71 -19 -85 -28 -14 -9 -38 -22 -55 -28
-16 -7 -79 -33 -140 -59 -191 -81 -775 -267 -1165 -371 -116 -31 -149 -43
-186 -67 -22 -13 -87 -50 -146 -81 -123 -65 -138 -77 -138 -114 0 -39 53 -251
89 -357 17 -49 31 -98 31 -107 0 -23 5 -22 38 0 52 36 56 37 50 14 -9 -34 10
-36 52 -7 21 15 99 53 173 85 74 32 166 79 204 104 148 96 450 238 798 376 99
39 198 82 221 95 23 13 76 36 118 50 85 28 238 103 361 175 44 26 130 76 190
111 87 49 133 85 220 169 61 59 129 118 151 133 72 45 252 262 291 350 36 79
90 185 160 307 75 133 207 392 216 425 4 13 -4 32 -24 55 l-30 35 -622 6
c-578 5 -632 7 -757 28 -74 12 -156 28 -181 35 -109 32 -212 103 -275 188 -48
65 -133 270 -164 396 -11 43 -26 94 -34 113 -18 44 -106 401 -106 432 0 13 -9
59 -21 103 -32 121 -107 524 -115 611 -3 43 -12 101 -19 128 -8 28 -19 106
-24 175 -6 69 -22 204 -36 300 -58 412 -66 483 -76 679 -13 240 -8 613 9 654
16 37 62 37 107 0 17 -16 52 -40 76 -56 91 -57 114 -75 221 -172 60 -55 117
-104 126 -109 10 -5 51 -41 92 -79 41 -38 109 -93 150 -122 41 -29 124 -96
183 -149 110 -97 142 -114 212 -119 l40 -2 -2 45 c-1 25 -13 81 -28 124 -24
75 -30 83 -118 167 -51 48 -130 131 -177 184 -47 54 -126 141 -176 194 -50 53
-124 135 -165 182 -41 48 -118 133 -170 190 -53 57 -139 160 -193 227 -54 68
-145 176 -203 240 -129 143 -310 367 -388 482 -32 47 -82 117 -111 155 -90
119 -143 279 -159 473 -6 82 3 115 28 97 8 -5 39 -26 68 -46 30 -20 77 -56
104 -80 28 -25 68 -57 91 -72 57 -39 278 -234 419 -371 136 -132 153 -139 185
-76 11 21 20 50 20 62 0 32 -119 230 -202 335 -37 49 -75 102 -83 119 -7 17
-42 67 -77 112 -35 44 -72 94 -83 111 -11 16 -33 46 -48 68 -56 76 -181 279
-204 333 -14 30 -42 75 -63 100 -21 25 -54 72 -73 105 -19 33 -62 98 -96 145
-67 94 -75 129 -40 174 22 29 76 36 85 12 3 -7 26 -28 52 -47 26 -18 146 -128
267 -244 265 -255 288 -276 436 -402 64 -54 194 -165 289 -248 198 -172 293
-250 333 -271 26 -14 27 -14 27 11 0 14 -6 38 -14 53 -8 16 -22 57 -31 92 -35
135 -201 339 -569 700 -440 431 -603 596 -751 758 -256 281 -288 348 -301 627
-5 111 -3 163 11 250 10 61 22 118 27 128 10 20 41 22 57 3 6 -7 25 -16 42
-20 35 -7 146 -114 229 -222 66 -86 253 -279 304 -314 20 -14 55 -49 77 -77
23 -29 56 -62 75 -73 18 -12 36 -29 39 -40 6 -20 327 -337 495 -488 58 -52
110 -102 117 -111 6 -9 100 -97 209 -196 110 -99 240 -219 290 -267 49 -49 94
-88 98 -88 41 0 522 -406 678 -571 194 -206 209 -225 348 -451 39 -62 101
-221 136 -343 24 -86 35 -273 24 -428 -5 -78 -12 -153 -15 -167 -3 -14 -18
-144 -34 -290 -17 -146 -42 -327 -56 -403 -48 -258 -85 -502 -100 -662 -8 -88
-22 -214 -30 -280 -8 -66 -15 -189 -15 -273 0 -180 4 -197 110 -419 44 -92 81
-156 100 -172 16 -14 55 -72 85 -128 84 -157 137 -231 220 -313 42 -41 115
-120 163 -175 114 -133 174 -195 187 -195 45 0 357 152 386 188 71 87 290 407
352 514 15 27 41 54 56 63 19 9 30 25 35 46 3 17 22 68 42 112 33 72 37 91 41
186 8 166 -20 232 -103 245 -21 3 -77 11 -123 17 l-83 12 6 36 c3 20 12 77 20
126 8 50 25 115 39 145 13 30 32 85 41 122 44 165 201 251 461 252 128 1 181
-10 236 -47 37 -25 79 -90 79 -124 0 -12 21 -45 46 -75 75 -87 211 -325 279
-488 15 -36 38 -79 51 -97 13 -17 24 -41 24 -52 0 -59 125 -307 282 -560 50
-80 108 -181 130 -223 21 -43 84 -149 140 -235 169 -264 238 -429 246 -598 7
-157 -41 -413 -108 -570 -21 -49 -42 -106 -48 -126 -21 -78 -188 -290 -319
-404 -43 -37 -125 -114 -183 -171 -58 -56 -159 -142 -225 -192 -158 -117 -299
-234 -326 -272 -13 -16 -77 -79 -143 -139 -154 -139 -229 -215 -311 -320 -82
-104 -105 -148 -105 -202 0 -56 57 -184 119 -268 61 -82 74 -114 66 -163 -13
-74 -43 -41 -139 150 -83 165 -134 212 -180 166 -24 -24 -20 -111 9 -192 29
-81 31 -102 8 -102 -31 0 -52 32 -94 148 -23 65 -46 123 -52 130 -16 20 -98
14 -147 -10 -40 -20 -45 -27 -48 -60 -2 -21 8 -85 22 -143 30 -121 31 -144 13
-169 -18 -25 -31 -7 -51 74 -9 35 -40 113 -68 172 -56 118 -59 120 -118 79
-20 -14 -26 -30 -31 -72 -7 -61 -23 -99 -43 -99 -7 0 -30 29 -51 66 -39 66
-59 84 -93 84 -31 0 -41 -21 -61 -124 -10 -53 -21 -100 -25 -103 -13 -13 -41
13 -73 68 -58 99 -48 95 -133 54 -101 -49 -175 -68 -455 -115 -364 -61 -454
-79 -522 -101 -59 -19 -65 -25 -106 -87 -40 -61 -61 -105 -142 -302 -15 -36
-31 -69 -35 -75 -4 -5 -10 -30 -14 -55 -4 -24 -12 -50 -17 -57 -6 -6 -11 -34
-12 -60 l-2 -48 65 2 c37 1 97 12 140 27 94 31 328 113 355 124 51 23 258 83
329 97 43 8 85 20 92 26 9 7 30 9 58 5 31 -5 56 -2 81 9 55 22 142 34 340 45
128 8 186 15 208 27 40 20 84 19 108 -3 25 -22 24 -35 -5 -92 -13 -26 -26 -60
-30 -77 -4 -16 -23 -56 -43 -88 -29 -48 -38 -76 -49 -155 -18 -125 -18 -191
-1 -198 7 -2 66 -1 130 5 86 6 125 14 149 29 18 11 50 25 71 32 48 15 57 30
106 169 44 126 68 159 124 168 30 4 42 1 69 -22 59 -48 286 -296 302 -328 8
-18 40 -61 71 -95 31 -35 64 -80 74 -101 22 -41 86 -104 181 -175 36 -27 83
-66 105 -87 49 -46 111 -64 275 -79 241 -21 479 -11 990 41 506 52 615 59 907
59 l282 0 115 60 c94 50 153 71 327 121 270 77 370 126 421 207 21 34 21 34 1
60 -11 15 -29 29 -39 30 -10 2 -26 11 -34 21 -8 9 -33 30 -55 46 -66 47 -123
105 -210 215 -107 137 -126 169 -115 191 5 9 33 34 62 54 29 21 73 59 98 84
25 25 118 105 205 178 180 148 319 280 417 396 36 43 83 90 105 106 59 44 466
445 521 514 68 85 87 126 133 290 45 156 74 221 150 334 91 135 127 231 97
261 -15 15 -112 16 -193 2 -84 -15 -463 -20 -495 -7 -14 5 -102 9 -202 9 -171
-1 -181 -2 -306 -37 -71 -19 -278 -85 -458 -146 -181 -60 -346 -114 -367 -120
-22 -5 -55 -21 -75 -34 -20 -14 -42 -25 -48 -25 -7 0 -63 -23 -125 -51 -62
-28 -129 -53 -149 -56 -19 -3 -52 -14 -72 -24 -21 -11 -64 -25 -95 -33 -32 -7
-74 -21 -93 -31 -18 -10 -73 -28 -121 -41 -80 -21 -124 -38 -328 -123 -40 -17
-90 -44 -110 -60 -20 -15 -56 -40 -81 -55 -25 -15 -110 -94 -190 -176 -80 -81
-164 -156 -185 -167 -46 -24 -203 -48 -391 -62 -119 -9 -137 -12 -186 -40 -30
-17 -61 -31 -70 -31 -8 0 -36 -11 -62 -25 -26 -14 -55 -25 -66 -25 -10 0 -36
-17 -58 -38 -22 -21 -58 -44 -81 -52 -40 -13 -42 -13 -70 15 -16 15 -35 40
-41 56 -10 24 -8 34 14 76 38 70 212 268 372 423 76 75 153 151 171 170 18 19
67 67 110 106 43 40 109 100 147 135 38 35 122 128 187 205 121 144 189 210
359 345 116 92 324 299 341 339 8 16 21 31 30 33 31 8 42 75 46 286 7 311 -12
402 -141 682 -99 213 -204 396 -371 644 -160 239 -391 561 -466 650 -68 81
-199 277 -234 350 -15 33 -67 125 -115 205 -48 80 -103 175 -122 211 -19 37
-46 82 -60 100 -14 19 -28 45 -31 59 -4 14 -37 57 -74 97 -85 89 -104 95 -257
83 -413 -35 -658 -105 -728 -207 -10 -15 -37 -63 -58 -105 -22 -42 -44 -79
-49 -82 -5 -3 -12 -29 -16 -58 -8 -58 -58 -213 -76 -234 -27 -33 -69 44 -69
127 0 97 95 857 126 1001 7 38 29 184 49 325 19 142 50 366 69 498 54 380 59
444 53 683 -6 212 -22 370 -52 484 -16 63 -83 202 -152 316 -25 41 -49 89 -54
106 -10 36 -74 116 -93 116 -7 0 -17 17 -22 37 -7 29 -18 43 -50 60 -25 14
-61 50 -91 91 -69 93 -232 262 -282 292 -23 14 -72 49 -108 78 -37 30 -85 62
-107 73 -27 12 -50 34 -67 62 -19 32 -35 46 -56 50 -16 3 -54 25 -83 49 -29
24 -62 50 -74 59 -12 9 -101 60 -199 113 -98 53 -208 115 -245 138 -37 23 -93
55 -124 72 -32 17 -308 187 -615 377 -367 228 -582 355 -628 372 -38 14 -120
47 -181 72 -148 60 -276 94 -297 77 -8 -7 -20 -47 -27 -90 -14 -87 -57 -232
-69 -232 -4 0 -13 12 -20 27 -7 15 -22 34 -34 42 -57 40 -237 214 -305 295
-41 50 -94 107 -116 126 -23 19 -84 76 -137 126 -95 90 -231 194 -254 194 -6
0 -17 11 -23 24 -16 36 -168 147 -199 146 -4 -1 -20 -7 -35 -16z m1690 -1103
c17 -5 49 -23 69 -40 21 -17 43 -31 50 -31 7 0 28 -16 47 -35 20 -19 44 -35
55 -35 11 0 32 -10 48 -23 15 -13 66 -48 113 -78 95 -62 200 -154 200 -175 0
-7 19 -23 43 -35 23 -12 68 -37 100 -56 32 -19 73 -39 92 -44 18 -5 58 -27 87
-49 29 -21 63 -46 76 -55 12 -9 22 -22 22 -28 0 -7 36 -29 81 -48 45 -18 108
-45 140 -59 33 -14 87 -46 122 -71 61 -44 219 -140 387 -234 101 -57 190 -116
239 -160 20 -17 57 -43 83 -58 25 -15 55 -38 66 -52 10 -13 31 -26 45 -29 33
-6 64 -23 74 -41 5 -8 60 -71 123 -140 120 -130 130 -146 229 -335 161 -309
149 -272 176 -559 24 -250 22 -362 -14 -641 -18 -135 -38 -281 -45 -325 -8
-44 -22 -161 -31 -260 -38 -417 -90 -857 -130 -1096 -52 -313 -70 -606 -70
-1129 0 -239 4 -468 9 -507 8 -64 7 -73 -7 -73 -20 0 -51 42 -115 156 -28 51
-74 127 -101 169 -28 43 -51 84 -51 91 0 8 -13 26 -29 40 -37 32 -65 98 -92
211 -20 81 -20 97 -10 198 7 61 22 180 36 265 13 85 26 229 30 320 3 91 10
210 16 265 57 609 63 1230 13 1613 -26 200 -121 623 -144 637 -4 3 -30 51 -58
107 -28 57 -73 130 -101 163 -28 33 -63 78 -77 100 -44 65 -431 438 -512 493
-20 13 -106 91 -192 172 -85 81 -198 185 -250 231 -52 46 -231 217 -397 381
-166 163 -316 304 -332 314 -17 10 -31 22 -31 26 0 4 -24 35 -54 68 -46 51
-57 71 -65 118 -6 31 -22 113 -36 182 -14 69 -25 140 -25 158 0 30 2 32 33 32
17 0 47 -4 65 -9z m3047 -2171 c-3 -5 -13 -10 -21 -10 -8 0 -14 5 -14 10 0 6
9 10 21 10 11 0 17 -4 14 -10z m-46 -3581 c67 -6 122 -16 130 -24 16 -16 8
-45 -23 -83 -13 -15 -78 -115 -144 -222 -66 -107 -124 -195 -129 -194 -4 1
-11 19 -15 40 -10 53 -12 388 -3 447 9 55 0 54 184 36z m4617 -3024 c3 -9 -77
-69 -214 -162 -26 -18 -69 -49 -96 -70 -164 -128 -413 -280 -588 -359 -57 -25
-123 -56 -148 -69 -51 -26 -132 -37 -318 -40 -145 -3 -139 -1 -270 -132 -51
-51 -111 -105 -134 -120 -39 -26 -48 -28 -135 -25 -51 1 -128 10 -170 19 -43
9 -98 17 -123 18 -25 1 -51 3 -57 4 -18 2 -16 46 2 61 7 6 28 36 45 66 42 75
118 152 158 160 17 4 37 13 43 20 6 8 21 14 33 14 11 0 48 16 81 35 131 76
264 124 409 147 39 6 91 22 116 36 92 51 117 60 225 82 61 12 148 37 195 55
132 51 237 83 337 104 50 11 162 48 249 81 87 34 185 68 219 75 67 15 137 15
141 0z m483 -84 c23 -6 22 -8 -37 -86 -64 -85 -306 -326 -436 -435 -133 -111
-277 -220 -381 -288 -55 -35 -133 -86 -174 -113 -41 -27 -81 -49 -89 -49 -26
0 -90 74 -97 113 -12 63 16 103 125 175 52 35 120 86 151 112 31 27 80 63 110
81 30 17 67 42 82 55 16 13 35 24 42 24 8 0 27 16 42 36 15 19 42 41 58 49 17
7 66 43 110 80 44 38 93 74 110 82 40 19 70 36 88 51 8 7 35 18 60 26 26 8 64
28 85 45 61 48 96 58 151 42z m-1527 -1004 c30 -20 62 -37 71 -37 29 0 40 -38
34 -119 -9 -132 -56 -231 -107 -231 -12 0 -45 22 -73 49 -29 27 -71 58 -94 70
-86 43 -145 131 -130 193 9 33 44 76 81 100 25 15 45 18 98 16 57 -3 74 -9
120 -41z m-2850 1 c100 -107 152 -241 114 -293 -14 -19 -15 -19 -33 -2 -11 9
-30 41 -42 70 -13 28 -40 86 -62 128 -59 116 -46 171 23 97z m1416 -247 c103
-11 264 -25 357 -31 204 -14 378 -42 501 -81 50 -16 103 -29 118 -29 20 0 41
-15 84 -61 31 -34 71 -81 87 -104 17 -23 46 -62 66 -86 21 -24 44 -60 52 -79
8 -19 38 -63 66 -98 56 -70 70 -120 29 -108 -13 4 -59 15 -103 26 -81 19 -168
36 -560 112 -60 11 -124 27 -142 34 -18 8 -56 14 -85 14 -29 0 -65 6 -80 14
-36 19 -63 24 -208 36 -69 6 -150 15 -180 20 -30 5 -129 14 -220 20 -91 6
-181 15 -200 20 -20 5 -92 14 -160 20 -69 6 -200 19 -292 31 -273 34 -310 49
-253 110 17 17 44 38 60 46 17 9 47 31 68 49 20 19 43 34 50 34 8 0 22 10 33
21 35 39 81 50 288 65 110 8 206 16 211 19 28 10 247 3 413 -14z m-2413 -40
c6 -21 -3 -51 -16 -51 -14 0 -29 37 -23 54 8 22 31 20 39 -3z m-227 -141 c23
-46 30 -110 11 -110 -5 0 -21 25 -35 55 -43 98 -23 146 24 55z m-388 -64 c0
-11 -264 -75 -490 -120 -36 -7 -80 -20 -97 -29 -18 -10 -74 -28 -124 -42 -106
-28 -136 -23 -124 23 19 79 58 102 182 108 54 3 154 14 223 25 69 10 154 23
190 28 69 9 240 14 240 7z m1725 -222 c97 -38 183 -65 239 -74 34 -6 79 -17
101 -25 22 -8 87 -21 145 -29 58 -8 118 -20 134 -25 15 -6 44 -11 64 -11 20 0
69 -9 107 -20 99 -29 325 -59 570 -75 335 -24 603 -63 1045 -155 277 -57 320
-68 320 -78 0 -11 -208 -127 -263 -147 -45 -17 -72 -18 -360 -9 -375 11 -1041
8 -1134 -6 -48 -6 -71 -6 -81 2 -9 8 -97 14 -250 19 -238 7 -245 7 -410 55
-29 9 -76 31 -105 51 -28 19 -73 46 -99 59 -47 24 -98 84 -113 134 -4 14 -27
54 -51 90 -43 64 -84 161 -84 199 0 11 12 29 26 40 33 26 138 28 199 5z"/>
<path d="M5443 6551 c-23 -11 -49 -31 -58 -45 -15 -23 -15 -30 -4 -67 17 -53
53 -79 108 -82 37 -1 47 3 72 31 50 56 50 116 -1 153 -39 28 -71 31 -117 10z"/>
<path d="M2910 2089 c-41 -22 -86 -49 -100 -59 -14 -10 -50 -29 -80 -43 -30
-13 -84 -46 -120 -73 -36 -26 -121 -85 -190 -131 -69 -45 -145 -97 -169 -114
-24 -18 -78 -50 -120 -71 -42 -22 -107 -62 -146 -90 -196 -145 -276 -199 -342
-232 -40 -19 -103 -55 -140 -80 -37 -24 -92 -56 -121 -70 -30 -15 -78 -47
-109 -72 -30 -24 -87 -61 -126 -80 -40 -20 -101 -57 -136 -83 -36 -25 -92 -59
-125 -76 -82 -41 -94 -63 -79 -152 7 -37 26 -115 43 -173 16 -58 30 -120 30
-138 0 -88 55 -136 108 -93 15 11 43 30 63 40 19 11 41 27 49 36 7 9 38 33 68
53 31 20 62 49 71 64 9 15 21 28 27 28 6 0 33 29 61 63 28 35 80 85 115 111
34 26 113 92 173 146 103 92 148 129 291 240 32 25 75 62 96 83 21 20 43 37
48 37 5 0 85 76 177 169 237 237 376 357 649 556 47 35 91 82 149 161 9 12 17
35 18 50 3 46 -41 43 -133 -7z"/>
<path d="M2149 978 c-258 -255 -509 -495 -558 -535 -126 -102 -153 -142 -116
-173 30 -25 289 0 460 45 28 8 95 16 150 20 181 11 200 25 253 175 44 126 135
356 170 430 16 36 51 133 77 215 25 83 55 175 66 206 25 73 24 79 -7 79 -21 0
-119 -91 -495 -462z"/>
</g>
</svg>
